<svg xmlns="http://www.w3.org/2000/svg" viewBox="0 0 24 21" width="24" height="21">
	<style>
		tspan { white-space:pre }
		.shp0 { fill: #808080 } 
		.shp1 { fill: none } 
	</style>
	<path class="shp0" d="M4.07 7.85L4.8 7.17L11.55 14.48L10.82 15.16L4.07 7.85Z" />
	<path class="shp0" d="M11.57 15.02L10.81 14.37L17.12 6.99L17.88 7.64L11.57 15.02Z" />
	<path class="shp0" d="M4.01 7.91L4.74 7.22L11.3 14.1L10.58 14.79L4.01 7.91Z" />
	<path class="shp0" d="M11.36 14.48L10.64 13.78L17.27 6.97L17.98 7.67L11.36 14.48Z" />
	<path class="shp0" d="M4.14 7.67L4.86 6.97L11.49 13.85L10.76 14.54L4.14 7.67Z" />
	<path class="shp0" d="M11.42 14.29L10.7 13.6L16.89 7.16L17.61 7.85L11.42 14.29Z" />
	<path class="shp0" d="M4.01 7.85L4.68 7.1L6.08 8.35L5.42 9.1L4.01 7.85Z" />
	<path class="shp0" d="M4.07 7.83L4.3 6.86L5.9 7.24L5.67 8.21L4.07 7.83Z" />
	<path class="shp0" d="M4.19 7.89L5 7.3L5.71 8.27L4.91 8.86L4.19 7.89Z" />
	<path class="shp0" d="M4.09 7.61L5.09 7.64L5.06 8.61L4.06 8.58L4.09 7.61Z" />
	<path class="shp0" d="M4.94 7.67L5.93 7.78L5.84 8.62L4.85 8.51L4.94 7.67Z" />
	<path class="shp0" d="M4.97 7.31L5.96 7.45L5.87 8.13L4.88 8L4.97 7.31Z" />
	<path class="shp0" d="M5.57 9L5.62 8L6.87 8.07L6.82 9.07L5.57 9Z" />
	<path class="shp0" d="M5.38 10.06L5.31 9.07L6.56 8.97L6.63 9.97L5.38 10.06Z" />
	<path class="shp0" d="M5.54 9.84L5.65 8.85L7.09 9.01L6.98 10L5.54 9.84Z" />
	<path class="shp0" d="M6.31 10.78L6.31 9.78L7.72 9.78L7.72 10.78L6.31 10.78Z" />
	<path class="shp0" d="M6.45 10.75L6.43 9.75L7.74 9.72L7.76 10.72L6.45 10.75Z" />
	<path class="shp0" d="M6.85 10.78L6.78 9.79L7.65 9.72L7.72 10.72L6.85 10.78Z" />
	<path class="shp0" d="M6.39 10.09L6.48 9.1L7.86 9.22L7.77 10.22L6.39 10.09Z" />
	<path class="shp0" d="M7.25 11.03L7.37 10.04L8.9 10.23L8.78 11.22L7.25 11.03Z" />
	<path class="shp0" d="M6.96 10.61L7.72 9.96L8.88 11.3L8.12 11.95L6.96 10.61Z" />
	<path class="shp0" d="M7.99 10.13L8.82 10.69L8.13 11.72L7.3 11.16L7.99 10.13Z" />
	<path class="shp0" d="M7.39 11.87L7.55 10.88L9.76 11.23L9.61 12.22L7.39 11.87Z" />
	<path class="shp0" d="M8.45 12.13L8.55 11.13L9.71 11.26L9.6 12.25L8.45 12.13Z" />
	<path class="shp0" d="M8.51 12.94L8.43 11.94L9.55 11.85L9.64 12.85L8.51 12.94Z" />
	<path class="shp0" d="M9.7 13.03L9.68 12.03L13.64 11.94L13.67 12.94L9.7 13.03Z" />
	<path class="shp0" d="M7.37 11.91L7.44 10.91L9.84 11.07L9.78 12.06L7.37 11.91Z" />
	<path class="shp0" d="M6.59 11L6.66 10L8.79 10.16L8.71 11.16L6.59 11Z" />
	<path class="shp0" d="M5.39 9.84L5.55 8.85L8.02 9.26L7.86 10.25L5.39 9.84Z" />
	<path class="shp0" d="M5.02 9.06L5.16 8.07L6.91 8.32L6.77 9.31L5.02 9.06Z" />
	<path class="shp0" d="M9.37 14.03L9.32 13.03L12.54 12.88L12.59 13.88L9.37 14.03Z" />
	<path class="shp0" d="M10.21 15L10.1 14.01L11.69 13.82L11.81 14.81L10.21 15Z" />
	<path class="shp0" d="M11.16 13.82L11.16 12.82L12.81 12.82L12.81 13.82L11.16 13.82Z" />
	<path class="shp0" d="M12.17 11.94L12.14 10.94L14.68 10.88L14.7 11.88L12.17 11.94Z" />
	<path class="shp0" d="M12.55 11.91L12.58 10.91L14.73 10.97L14.7 11.97L12.55 11.91Z" />
	<path class="shp0" d="M12.5 12.03L12.44 11.04L14.69 10.91L14.75 11.91L12.5 12.03Z" />
	<path class="shp0" d="M13.68 11.21L13.44 10.24L15.72 9.67L15.96 10.64L13.68 11.21Z" />
	<path class="shp0" d="M12.9 10.67L13.6 9.96L14.88 11.24L14.18 11.95L12.9 10.67Z" />
	<path class="shp0" d="M13.39 11.03L13.48 10.04L14.51 10.13L14.42 11.13L13.39 11.03Z" />
	<path class="shp0" d="M13.53 10.97L13.53 9.97L14.28 9.97L14.28 10.97L13.53 10.97Z" />
	<path class="shp0" d="M14.42 10.91L14.52 9.91L15.43 10.01L15.32 11L14.42 10.91Z" />
	<path class="shp0" d="M15 10.91L15 9.91L15.38 9.91L15.38 10.91L15 10.91Z" />
	<path class="shp0" d="M15.38 10.88L15.38 9.88L15.69 9.88L15.69 10.88L15.38 10.88Z" />
	<path class="shp0" d="M14.65 10.97L14.6 9.97L15.79 9.91L15.84 10.91L14.65 10.97Z" />
	<path class="shp0" d="M14.33 9.94L14.36 8.94L16.24 9L16.2 10L14.33 9.94Z" />
	<path class="shp0" d="M14.72 10.1L14.65 9.1L16.81 8.94L16.88 9.94L14.72 10.1Z" />
	<path class="shp0" d="M14.3 9.91L14.33 8.91L16.67 8.97L16.64 9.97L14.3 9.91Z" />
	<path class="shp0" d="M15.42 8.94L15.39 7.94L17.61 7.88L17.64 8.88L15.42 8.94Z" />
	<path class="shp0" d="M15.52 9.03L15.42 8.04L17.36 7.85L17.45 8.84L15.52 9.03Z" />
	<path class="shp0" d="M15.6 8.85L15.65 7.85L17.78 7.97L17.72 8.97L15.6 8.85Z" />
	<path class="shp0" d="M15.41 8.97L15.4 7.97L17.84 7.94L17.85 8.94L15.41 8.97Z" />
	<path class="shp0" d="M16.26 7.9L16.43 6.92L17.71 7.14L17.54 8.12L16.26 7.9Z" />
	<path class="shp0" d="M16.45 8.07L16.49 7.07L17.42 7.1L17.39 8.1L16.45 8.07Z" />
	<path class="shp1" d="M16.3 8.19L16.38 7.19L17.57 7.29L17.49 8.28L16.3 8.19Z" />
</svg>